<svg width="33" height="32" viewBox="0 0 33 32" fill="none" xmlns="http://www.w3.org/2000/svg">
<path d="M31.5908 3.23595H0.619569C0.501178 3.23595 0.400545 3.18352 0.317671 3.07865C0.234796 2.97378 0.193359 2.84644 0.193359 2.69663V0.539326C0.193359 0.389513 0.234796 0.262173 0.317671 0.157303C0.400545 0.052433 0.501178 0 0.619569 0H31.5908C31.7092 0 31.8098 0.052433 31.8927 0.157303C31.9756 0.262173 32.017 0.389513 32.017 0.539326V2.69663C32.017 2.84644 31.9756 2.97378 31.8927 3.07865C31.8098 3.18352 31.7092 3.23595 31.5908 3.23595ZM31.5908 17.618H0.619569C0.501178 17.618 0.400545 17.5655 0.317671 17.4607C0.234796 17.3558 0.193359 17.2285 0.193359 17.0787V14.9213C0.193359 14.7715 0.234796 14.6442 0.317671 14.5393C0.400545 14.4345 0.501178 14.382 0.619569 14.382H31.5908C31.7092 14.382 31.8098 14.4345 31.8927 14.5393C31.9756 14.6442 32.017 14.7715 32.017 14.9213V17.0787C32.017 17.2285 31.9756 17.3558 31.8927 17.4607C31.8098 17.5655 31.7092 17.618 31.5908 17.618ZM31.5908 32H0.619569C0.501178 32 0.400545 31.9476 0.317671 31.8427C0.234796 31.7378 0.193359 31.6105 0.193359 31.4607V29.3034C0.193359 29.1536 0.234796 29.0262 0.317671 28.9213C0.400545 28.8165 0.501178 28.764 0.619569 28.764H31.5908C31.7092 28.764 31.8098 28.8165 31.8927 28.9213C31.9756 29.0262 32.017 29.1536 32.017 29.3034V31.4607C32.017 31.6105 31.9756 31.7378 31.8927 31.8427C31.8098 31.9476 31.7092 32 31.5908 32Z" fill="white"/>
</svg>
